<svg xmlns="http://www.w3.org/2000/svg" width="21.209" height="23.747" viewBox="0 0 21.209 23.747">
    <defs>
        <style>
            .cls-1{fill:#27293d}
        </style>
    </defs>
    <g id="icon_scooter_guy">
        <path id="Trazado_13" d="M18.335 23.25c.05-.066.084-.132.135-.2h-.034l.017-.017c.017 0 .034.017.05.017a1.177 1.177 0 0 0 .724-.5c.017-.182.168-.165.286-.182A11.592 11.592 0 0 0 22 20.091a4.762 4.762 0 0 0 .572-1.307c.286-.777.538-1.571.774-2.381.252.182.488.38.74.562a1.217 1.217 0 0 1 .151.132.6.6 0 0 0 .3.232c.017 0 .017.017.034.017h-.017a4.9 4.9 0 0 0 .707.612 5.529 5.529 0 0 1-.135.761c0 .017-.017.033-.017.05a1.768 1.768 0 0 1-.017.3v.017c-.084.05-.05.132-.067.2 0 .017 0 .033.017.033-.017.017-.034 0-.017-.017a.059.059 0 0 0-.025-.021 1.186 1.186 0 0 0-.118.48.1.1 0 0 1 .017.066.45.45 0 0 0-.017.149.06.06 0 0 0 .017.05v.033c-.017-.033-.017-.066-.05-.083-.168.5-.236 1.025-.37 1.538a.147.147 0 0 1 .017.083 2.222 2.222 0 0 1-.067.281c-.017.066-.05.132-.067.2-.387.3-.2.678-.151 1.025-.017.066-.017.132-.034.2.236.017.488.017.724.033h-.017a2.783 2.783 0 0 0 .976.066c.421.017.841 0 1.262 0v-.066l-.017-.017c.017 0 .017 0 .034.017.135 0 .252-.017.387-.017a1.45 1.45 0 0 0-.1-.165c.067-.05.118-.083.168-.116a.392.392 0 0 0 .118-.48.319.319 0 0 0-.454-.083 3.723 3.723 0 0 1-.437.017l.017.017a.063.063 0 0 1-.05-.017c-.118.033-.151-.066-.219-.132l.017-.017a.168.168 0 0 0-.219-.083h-.017a.129.129 0 0 0-.067-.017l-.017.017v-.017c-.118-.215-.353-.232-.538-.347v-.017c-.067-.083-.151-.182-.219-.281.135-.463.421-.843.538-1.307v-.116a2.521 2.521 0 0 0 .135-.314l.067-.066a1.449 1.449 0 0 0 .3-.695v-.05a1.526 1.526 0 0 0 .2-.447l.017-.017a3.192 3.192 0 0 0 .5-1.207.6.6 0 0 0-.168-.6 4.131 4.131 0 0 0-.959-.91h-.017c-.067-.05-.135-.116-.2-.165 0 .033-.017.05-.017.083a.125.125 0 0 1-.034-.083.387.387 0 0 0-.252-.232.757.757 0 0 0-.32-.232v.083c-.017-.033-.034-.05-.05-.083s-.05-.05-.067-.066a.49.49 0 0 1 .034-.5c.151-.711.236-1.439.37-2.15a.653.653 0 0 1 .084-.628 1.149 1.149 0 0 0 .135-.662.166.166 0 0 0-.067-.083h.017c0-.017.017-.017.017-.033v.017h.034a1.606 1.606 0 0 0 .858-.165c.269-.066.538-.149.808-.215a.538.538 0 0 0 .471-.083h.1a2.689 2.689 0 0 0 1.649-.5 19.956 19.956 0 0 0 1.885-.943c.337 0 .639-.265.993-.2a.261.261 0 0 0 .017-.248c-.168-.083-.387-.149-.387-.38.084-.3.236-.347.471-.149.05.066.084.182.185.232.135.033.2 0 .219-.149a.993.993 0 0 0-.471-.86.291.291 0 0 0-.337.083 2.051 2.051 0 0 0-.5.645.492.492 0 0 1-.522.331.434.434 0 0 0-.118.033.828.828 0 0 1 .118-.05.69.69 0 0 0-.185 0c-.925.347-1.834.678-2.776.943a1.8 1.8 0 0 0-.774-.05c-.471-.132-.942-.265-1.4-.4a1.679 1.679 0 0 1 .185-1.141c.084-.116.168-.215.32-.2l.017-.017v.017c.034.033.067.05.1.083.774.347 1.161.116 1.3-.744.017-.116-.034-.248.067-.331.387-.265.286-.562.1-.893a1.6 1.6 0 0 1-.084-.744.923.923 0 0 1 .151-.116.947.947 0 0 0 .488-.347c.135-.215.135-.38-.168-.413-.135-.281-.168-.579-.437-.777 0-.033-.017-.05-.034-.083-.185-.281-.353-.562-.757-.529h-.017c-.05-.2-.236-.182-.387-.215-.017 0-.017 0-.017.017v.001a.238.238 0 0 0-.236-.017.58.58 0 0 0-.437-.066h-.017a.016.016 0 0 1 .017-.017.434.434 0 0 0-.286.066v.017a.776.776 0 0 0-.538.132.016.016 0 0 0-.017.017c0-.017.017-.017.017-.033-.118.05-.3.017-.269.232h.017l-.017.017v-.034h-.021c-.168-.132-.269.033-.37.116a2.415 2.415 0 0 0-.774 2.4c.034.182 0 .38.135.546.067.248.337.232.488.38a.467.467 0 0 0 .337.3 1.787 1.787 0 0 0 .05.6c.084.232-.067.4-.2.562-.05.116-.2.215-.168.364a17.437 17.437 0 0 0-1.548 2.1 2.091 2.091 0 0 1-.3.48c-.034.033-.05.083-.084.116-.017.017-.017.033-.034.05l-.252.331-.017.017a7.5 7.5 0 0 0-.757 1.141v.005c-.05.1-.1.182-.151.281-.168.2-.269.447-.421.662a.283.283 0 0 0 .034.413h.05l-.017.017a.683.683 0 0 0-.1.513c-.151.2-.067.413-.084.612.017 0 0 .066.017.033-.017.05.017-.033 0 0h.017c-.017.017.067-.033.05-.017 0-.017-.084 0-.084-.017-.135.1-.034.248-.067.38a.636.636 0 0 0-.067.463c0 .2-.017.4-.017.6a.157.157 0 0 0-.05.165c-.017.265-.034.513-.034.728 0-.017.017-.017.017-.033 0 .017-.017.033-.017.05a.228.228 0 0 0-.05.248.207.207 0 0 0 .017.1c-.017-.033-.017-.066-.034-.1 0 .265 0 .529-.017.81.017-.017.017-.05.034-.066 0 .017-.017.05-.017.066a.256.256 0 0 0-.05.248.06.06 0 0 0 .017.05c0-.017-.017-.033-.034-.066 0 .232-.017.463-.034.678h.017l-.017.017c-.69.662-1.329 1.406-1.986 2.117h.017a.486.486 0 0 0-.219.3c-.017.017-.017.033-.034.05 0-.017.017-.033.017-.05-.168.05-.236.182-.32.3h.017c-.135.132-.252.265-.387.4v.017c0-.017-.017-.017-.017-.033-.084.033-.084.1-.1.149h-.05a.886.886 0 0 0-1.085.515c-.135.265.135.314.219.43 0 .017-.017.017-.017.033a1.89 1.89 0 0 0 .387.5c.017.017.017.033.034.05.05.083.118.182.168.281.337.314.5.761.892 1.025a.623.623 0 0 0 .488.281.365.365 0 0 0 .437-.132c.1-.149-.017-.281-.1-.4-.118-.149-.252-.3-.387-.463-.017 0-.017-.017-.034-.017h.017a.717.717 0 0 0-.034-.165c.017-.017 0-.033 0-.05 0-.05.017-.1.017-.149h-.017a.016.016 0 0 1-.017-.017c-.017-.017-.034-.05-.05-.05h-.02c-.017-.1.084-.215 0-.314-.017 0-.017-.017-.034-.017h.05c-.017-.05-.05-.083-.067-.132.1-.083.1-.182-.017-.248a.4.4 0 0 1 0-.2m2.288-4.035zm5.825-12.565z" class="cls-1" data-name="Trazado 13" transform="translate(-16.38 -2.474)"/>
        <g id="Grupo_8" data-name="Grupo 8" transform="translate(3.228 5.203)">
            <path id="Trazado_14" d="M49.417 50.781l-.05.05c-.017.017-.034.033-.05.033-.034 0-.034-.033-.034-.05a2.643 2.643 0 0 1-.034-.728 2.22 2.22 0 0 1 .252-.777 2.071 2.071 0 0 1 .74-.777.686.686 0 0 1 .151-.083c.034-.033.05-.05.034-.1-.034-.083-.034-.165-.067-.248a.307.307 0 0 1-.034-.132c.034-.083-.034-.116-.067-.165a.108.108 0 0 0-.151-.017l-.084.083c-.421.513-.824 1.042-1.245 1.538-.034.066-.1.132-.135.2a.11.11 0 0 0 .084.033.436.436 0 0 1 .2.083.206.206 0 0 1 .034.281 1.453 1.453 0 0 0-.135.165c-.118.2-.252.38-.37.579a.172.172 0 0 1-.135.083.74.74 0 0 0-.084.017 2.765 2.765 0 0 1-.522.033H39.91c-.168 0-.135 0-.185.132a2.046 2.046 0 0 1-2.187 1.455 1.886 1.886 0 0 1-1.245-.6 2 2 0 0 1-.538-1.951c.017-.033.034-.066.017-.1-.067 0-.1.033-.151.033s-.067-.033-.05-.083c.034-.083.05-.132.084-.2.017-.033.034-.083-.017-.116-.034-.033-.034-.05-.017-.083.084-.132.151-.248.236-.364.034-.033.05-.05.084-.033s.067.017.084-.033a1.769 1.769 0 0 1 .252-.248 2.235 2.235 0 0 1 1.329-.513 2.309 2.309 0 0 1 .993.149c.1.033.118.033.185-.05.034-.033.034-.033.084-.033a1.209 1.209 0 0 1 .252.132c.034.017.034.033.017.066s-.034.033-.067.033c-.034-.017-.05-.033-.084-.033-.017 0-.034-.017-.034 0-.017.017 0 .033.017.033.084.033.135.116.2.182a1.832 1.832 0 0 0 .185.165c.135.132.236.3.353.43a1.524 1.524 0 0 0 .337.314.389.389 0 0 0 .185.05c.1 0 .2-.017.3-.017h6.882a.313.313 0 0 0 .2-.083c.337-.413.673-.827 1.01-1.257.421-.513.824-1.025 1.245-1.538a.277.277 0 0 0 .067-.3 2.84 2.84 0 0 1-.084-.364.073.073 0 0 1 .034-.1c.084-.05.084-.05.067-.132-.1-.413-.2-.827-.32-1.257-.135-.546-.269-1.092-.421-1.654-.168-.678-.337-1.373-.5-2.051-.252-.943-.488-1.9-.707-2.845-.135-.6-.3-1.191-.437-1.77-.084-.364-.185-.728-.269-1.092a4.882 4.882 0 0 0-.135-.529c-.017-.083 0-.083.084-.116a.609.609 0 0 0 .185-.066.125.125 0 0 1 .1-.033.182.182 0 0 0 .135-.017c.168-.033.337-.083.5-.116a.249.249 0 0 0 .185-.132.3.3 0 0 1 .219-.182c.017 0 .017-.017.034-.017a.129.129 0 0 1 .135-.017.281.281 0 0 0 .168.033.226.226 0 0 1 .135.05c.034.033.067.033.084.017.034-.033.05-.017.067.033.034.116.05.215.084.331.034.165.034.182.236.165h.034a2.072 2.072 0 0 1 .32-.017c.084 0 .084.017.084.083a.076.076 0 0 0 .067.083.333.333 0 0 0 .135.017c.034 0 .034 0 .05.033a.1.1 0 0 1-.084.149 1.185 1.185 0 0 1-.337-.05 1.074 1.074 0 0 0-.32-.05 1.828 1.828 0 0 0-.421.05c-.05.017-.084.033-.1.083a.206.206 0 0 1-.1.132.269.269 0 0 1-.37-.033c-.034-.033-.05-.05-.084-.033-.084.033-.151.033-.236.066a.222.222 0 0 0-.135.248.717.717 0 0 1 .034.165c.252 1.042.5 2.051.774 3.093s.538 2.1.791 3.159c.135.546.269 1.092.421 1.654.185.761.37 1.5.555 2.266.034.083.034.083.118.1.05 0 .084.017.084.066a.051.051 0 0 1 .017.033c.034.165.084.314.118.48s.084.314.118.48.084.331.135.5.067.331.118.48c.034.083.034.182.067.265.034.1.034.1.135.1a2.419 2.419 0 0 1 1.026.265 3.485 3.485 0 0 1 .4.281c.017.017.034.033.034.05-.017.033-.034.033-.067.033-.034.017-.084.017-.135.033a1.977 1.977 0 0 1 .606 2.381 2.115 2.115 0 0 1-2.961.959 2.221 2.221 0 0 1-.993-1.389zm-12.351-1.522a1.269 1.269 0 0 0-.606.678c-.017.033-.034.033-.034.066-.017.033 0 .05.034.066l.252.05a.077.077 0 0 0 .084-.066 1.552 1.552 0 0 1 .2-.3 1.026 1.026 0 0 1 .4-.248c.084-.033.084-.033.067-.116s-.017-.165-.034-.248c0-.033-.017-.05-.05-.033a.9.9 0 0 0-.313.151zm-.166 2.233c.034.017.034.033.05.033.034.033.05.017.067-.017.034-.066.084-.132.118-.2.017-.033.017-.05-.017-.083l-.067-.066a1.077 1.077 0 0 1-.32-.728c-.017-.083 0-.083-.084-.083s-.135-.033-.2-.033c-.084-.017-.084 0-.084.083v.033a1.427 1.427 0 0 0 .537 1.061zm1.531.132a.942.942 0 0 1 .135-.083c.05-.033.067-.05.017-.1a1.008 1.008 0 0 1-.135-.132.08.08 0 0 0-.1-.017.762.762 0 0 1-.2.1 1.1 1.1 0 0 1-.656.033c-.1-.033-.1-.033-.151.066a.921.921 0 0 0-.084.132.051.051 0 0 0 .034.083 1.5 1.5 0 0 0 .252.083 1.905 1.905 0 0 0 .286.033 1.02 1.02 0 0 0 .6-.198zm-.37-2.53a.665.665 0 0 0-.252-.033c-.067 0-.067.017-.067.066a1.256 1.256 0 0 0 .034.248c.017.033.017.083.067.083a.061.061 0 0 0 .067-.066.094.094 0 0 1 .135-.05c.034.017.034.033.067.017a.283.283 0 0 1 .2 0c.05 0 .084.017.118-.033.034-.033.084-.017.168-.033a1.194 1.194 0 0 0-.539-.199zm.606 1.9c-.067.083-.067.083.017.165.034.05.084.083.118.132.034.033.05.033.084 0a1.169 1.169 0 0 0 .219-.364c.034-.033 0-.066-.034-.066h-.135c-.236-.014-.187-.03-.271.139zm-.555.05c.034-.017.034-.017.034-.033s-.034-.033-.034-.033a.1.1 0 0 0-.067-.017.842.842 0 0 1-.269-.083c-.034-.033-.067-.033-.084 0-.05.066-.05.116-.034.149.034.05.084.066.2.066a.523.523 0 0 0 .252-.047zm-.812-.114c.034.017.034 0 .05-.017a.2.2 0 0 0 .05-.165c-.034-.05-.017-.116-.017-.182 0-.033.017-.066-.034-.083-.034-.017-.067-.017-.084.017a.36.36 0 0 0-.084.2.754.754 0 0 0 .119.23zm-.084-.81c-.034.05-.034.066.034.083a.154.154 0 0 1 .084.017c.067.033.118.017.151-.066.017-.033.034-.05.05-.083a.245.245 0 0 0-.317.048zm1.548-.628c.034-.017.017-.033 0-.05a.11.11 0 0 0-.084-.033c-.017 0-.067.017-.084.017-.034 0-.05 0-.05.033s.017.066.05.066a.316.316 0 0 1 .118.033c.018-.017.018-.067.052-.067zm-.589-.1a.343.343 0 0 1 .151.1c.017.033.034.033.05.033.017-.017.017-.033.017-.066s-.017-.066-.05-.066a.735.735 0 0 0-.2-.033c.017.015.017.032.034.032zm-.606.546c.017-.017.017-.033 0-.066s-.034-.033-.067-.033c-.067 0-.1.033-.1.066.017.033.034.033.118.033.017-.001.034.016.051-.001zm1.38-.281a.291.291 0 0 0-.067-.083.647.647 0 0 1 0 .182c.103-.017.103-.033.069-.1z" class="cls-1" data-name="Trazado 14" transform="translate(-35.562 -33.934)"/>
        </g>
    </g>
</svg>
