<svg xmlns="http://www.w3.org/2000/svg" id="icon_user" width="24" height="24" viewBox="0 0 24 24">
    <defs>
        <style>
            .cls-1{fill:#fff}.cls-2{fill:none}
        </style>
    </defs>
    <g id="Grupo_111" data-name="Grupo 111" transform="translate(.4 .416)">
        <g id="Grupo_110" data-name="Grupo 110">
            <path id="Trazado_1301" d="M22.308 17.576a11.423 11.423 0 0 0-4.416-2.752 6.716 6.716 0 1 0-7.584-.016 11.654 11.654 0 0 0-4.416 2.768A11.52 11.52 0 0 0 2.5 25.784h1.808a9.792 9.792 0 0 1 19.584 0H25.7a11.52 11.52 0 0 0-3.392-8.208zM14.1 14.184a4.9 4.9 0 1 1 4.9-4.9 4.9 4.9 0 0 1-4.9 4.9z" class="cls-1" data-name="Trazado 1301" transform="translate(-2.5 -2.6)"/>
        </g>
    </g>
    <path id="Rectángulo_60" d="M0 0h24v24H0z" class="cls-2" data-name="Rectángulo 60"/>
</svg>
