<svg xmlns="http://www.w3.org/2000/svg" id="icon_worldwide" width="24" height="24" viewBox="0 0 24 24">
    <defs>
        <style>
            .cls-1{fill:#1f2138}.cls-2{fill:none}
        </style>
    </defs>
    <g id="World" transform="translate(.4 2.546)">
        <path id="Trazado_1256" d="M64.468 18.679A9.46 9.46 0 0 0 52.4 17.591a.459.459 0 1 0 .528.752 8.459 8.459 0 0 1 2.8-1.264 6.859 6.859 0 0 0-.512.752 12.548 12.548 0 0 0-1.388 4.469.453.453 0 0 0 .9.128c.048-.368.128-.736.192-1.088h5.74a19.34 19.34 0 0 1 .4 3.584h-1.28a.448.448 0 1 0 0 .9h1.28a19.185 19.185 0 0 1-.4 3.584H58.4a.448.448 0 1 0 0 .9h2.02a12.333 12.333 0 0 1-.432 1.232c-.576 1.392-1.312 2.224-2.048 2.336h-.34c-1.28-.192-2.5-2.576-2.928-5.824a.453.453 0 1 0-.9.128 13.386 13.386 0 0 0 1.392 4.624 6.569 6.569 0 0 0 .544.816 8.389 8.389 0 0 1-3.04-1.424.458.458 0 1 0-.544.736 9.459 9.459 0 0 0 5.648 1.872c.208 0 .432 0 .64-.016a9.475 9.475 0 0 0 6.032-2.752 9.444 9.444 0 0 0 .016-13.344zm1.84 6.24h-4.352a20.848 20.848 0 0 0-.384-3.584H65.3a8.134 8.134 0 0 1 1.008 3.584zm-11.168-4.5A9.485 9.485 0 0 1 56 18.3c.544-.944 1.168-1.456 1.776-1.456.784 0 1.6.864 2.224 2.352a12.333 12.333 0 0 1 .432 1.232zm5.7-1.584a7.274 7.274 0 0 0-1.008-1.76 8.534 8.534 0 0 1 3.984 2.256 10.086 10.086 0 0 1 .928 1.088h-3.38a10.21 10.21 0 0 0-.528-1.58zm2.992 12.576a8.592 8.592 0 0 1-3.968 2.24 7.137 7.137 0 0 0 .992-1.744 10.813 10.813 0 0 0 .528-1.584h3.376a11.909 11.909 0 0 1-.932 1.092zm-2.24-2a21.2 21.2 0 0 0 .384-3.584h4.352a8.415 8.415 0 0 1-1.008 3.584z" class="cls-1" data-name="Trazado 1256" transform="translate(-44.036 -15.913)"/>
        <path id="Trazado_1257" d="M3.268 37.328a.464.464 0 0 0-.64 0 .448.448 0 0 0 .32.768.437.437 0 0 0 .448-.448.38.38 0 0 0-.128-.32z" class="cls-1" data-name="Trazado 1257" transform="translate(-2.5 -33.794)"/>
        <path id="Trazado_1258" d="M15.284 37.2h-1.936a.447.447 0 0 0-.448.448.458.458 0 0 0 .448.448h1.936a.447.447 0 0 0 .448-.448.458.458 0 0 0-.448-.448z" class="cls-1" data-name="Trazado 1258" transform="translate(-11.236 -33.794)"/>
        <path id="Trazado_1259" d="M7.948 107.2h-2.8a.448.448 0 1 0 0 .9h2.8a.447.447 0 0 0 .448-.448.437.437 0 0 0-.448-.452z" class="cls-1" data-name="Trazado 1259" transform="translate(-4.348 -92.594)"/>
        <path id="Trazado_1260" d="M78.368 100.428a.464.464 0 1 0 .128.32.508.508 0 0 0-.128-.32z" class="cls-1" data-name="Trazado 1260" transform="translate(-65.584 -86.798)"/>
    </g>
    <path id="Rectángulo_43" d="M0 0h24v24H0z" class="cls-2" data-name="Rectángulo 43"/>
    <g id="Grupo_99" data-name="Grupo 99" transform="translate(.88 8.292)">
        <g id="Grupo_98" data-name="Grupo 98" transform="translate(.736)">
            <path id="Trazado_1261" d="M10.1 59.117a.441.441 0 0 0 .144-.112v.032a.767.767 0 0 0 .144.416.84.84 0 0 0 .352.272 1.355 1.355 0 0 0 .272.064 1.244 1.244 0 0 0 .256-.032.889.889 0 0 0 .272-.144.782.782 0 0 0 .224-.288c.016-.032.032-.048.064-.048h3.264c.032 0 .032 0 .048.032a.272.272 0 0 1 .016.112c.016.08.032.144.048.224v.1c0 .032.016.032.032.032h.08c.016 0 .032 0 .032-.016a.1.1 0 0 0-.016-.064c-.032-.016-.032-.032-.032-.048-.016-.112-.048-.208-.064-.32v-.048H16a.145.145 0 0 0 .112-.048 3.514 3.514 0 0 1 .224-.288c.016-.032.048-.032.08-.032a.121.121 0 0 0 .064-.016c.032-.016.048-.032.032-.064a.108.108 0 0 0-.1-.064H16.3c.016-.016.016-.032.032-.048.112-.128.208-.272.32-.4.1-.112.176-.224.272-.336.016-.016.016-.032.032-.048a.016.016 0 0 0 .016.016c0 .032.016.048.016.08 0 .048.016.1.016.144a.088.088 0 0 1-.032.08.791.791 0 0 0-.256.3.865.865 0 0 0-.1.48v.016a.016.016 0 0 0 .016.016h.016a.016.016 0 0 0 .016-.016c.032-.032.032-.064.048-.112.032-.1.064-.176.1-.272a.77.77 0 0 1 .192-.256l.032-.032c.016.016.016.032 0 .032a.221.221 0 0 1-.064.048.723.723 0 0 0-.176.272.663.663 0 0 0-.048.256.7.7 0 0 0 .032.256.859.859 0 0 0 .22.355.77.77 0 0 0 .608.208.577.577 0 0 0 .32-.1.678.678 0 0 0 .288-.272.718.718 0 0 0 .112-.48.795.795 0 0 0-.608-.7c-.032-.016-.032-.016-.032-.048h.032c.048 0 .1.016.144.016a.059.059 0 0 1 .048.016.137.137 0 0 0 .112 0c.016 0 .016-.016.032-.016-.016-.016-.032-.016-.032-.032a.7.7 0 0 0-.3-.112h-.032a.034.034 0 0 1-.032-.032 1.84 1.84 0 0 1-.1-.272v-.016c-.032-.016 0-.048-.016-.08v-.016c0-.016.016-.016.016-.032a.1.1 0 0 0 .016-.112c-.048-.176-.08-.336-.128-.512a.14.14 0 0 0-.1-.112.016.016 0 0 1-.016-.016c0-.016-.032-.032-.048-.048a.088.088 0 0 1-.048-.08v-.032l-.1-.336c-.016-.032-.016-.064-.048-.08a.162.162 0 0 1-.064-.112l-.432-1.68c-.144-.576-.288-1.168-.432-1.744a.059.059 0 0 0-.016-.048h.032a.205.205 0 0 0 .16-.064.879.879 0 0 0 .144-.112l.144-.1c.016-.016.032-.016.048-.032a.16.16 0 0 0 .064-.08.034.034 0 0 1 .032-.032.221.221 0 0 0 .064-.048.056.056 0 0 1 .032-.016h.048c.032 0 .048 0 .048-.032 0-.016 0-.032-.032-.048-.048-.016-.08-.016-.128-.032h-.08a.122.122 0 0 1-.08-.032c-.016-.016-.016-.032-.032-.048-.016-.048-.016-.1-.032-.144 0-.032 0-.032-.032-.032a.059.059 0 0 1-.048-.016.116.116 0 0 0-.176.032.335.335 0 0 1-.1.064c-.16.032-.3.064-.464.1-.016 0-.032.016-.064.016-.048.016-.048.016-.032.064a.68.68 0 0 1 .032.176 1.99 1.99 0 0 0 .064.256v.1a4.289 4.289 0 0 0 .112.432l.24.96a.059.059 0 0 0 .016.048c-.048.032-.048.016-.08-.016a.016.016 0 0 0-.016-.016c0-.016-.016-.016-.032-.016s-.016.016-.016.032c.016.032.016.048.032.08.016.016.016.048.032.064s.048 0 .064 0h.016c0 .016.016.032.016.048.08.3.16.608.224.912.1.368.176.736.272 1.12a.1.1 0 0 1-.016.112.1.1 0 0 0 0 .1l.1.336c0 .032.032.048.016.08a.059.059 0 0 1-.016.048.12.12 0 0 0-.016.08c.032.1.048.192.08.288a.07.07 0 0 1-.016.08c-.3.384-.624.784-.928 1.184-.048.048-.08.112-.128.16-.016.016-.032.032-.048.032h-3.228a.118.118 0 0 1-.1-.032.35.35 0 0 0-.08-.048.231.231 0 0 0-.112-.032.378.378 0 0 1-.144-.1c-.016-.032-.048-.048-.064-.08-.016-.016-.016-.032-.032-.032l-.016-.016c0-.032-.032-.048-.048-.064-.032-.032-.048-.064-.1-.08l-.016-.016c-.016-.032-.048-.032-.08-.048s-.048-.048-.1-.032a.559.559 0 0 0-.208-.08 1.128 1.128 0 0 0-.816.208.811.811 0 0 0-.288.4 1.771 1.771 0 0 0-.112.416c-.02-.072-.02-.055-.02-.055zm5.952-6.512c0-.016-.016-.032-.016-.064a.034.034 0 0 0-.036-.032.016.016 0 0 1-.016-.016.141.141 0 0 1-.016-.112.16.16 0 0 1 .08-.064c.032-.016.032.016.048.032a.1.1 0 0 0 .144.016l.032-.032a.125.125 0 0 0 .064-.064c0-.016.016-.016.032-.016.048-.016.1-.016.144-.032h.016c.032.016.048.032.08.048.016.016.016.016.016.032-.016.016-.016.032-.032.048s-.032.032-.048.032a.661.661 0 0 0-.176.112c-.048.032-.1.08-.144.112a.231.231 0 0 1-.112.032c-.06.016-.06.016-.06-.032zm-4.736 6.16l-.048-.048c0-.016.016-.016.032-.032a.174.174 0 0 1 .016.08zm-.032.048a.022.022 0 0 1 .032 0c0 .016-.032.016-.032 0zm-.032-.032a.022.022 0 0 1 .032 0c0 .016 0 .016-.032 0 .016.019 0 .019 0 0zm-.016-.08l-.032-.016v-.016l.016-.016h.016l.032.016v.016l-.032.016zm-.016.032c-.016.016-.016 0-.016 0 0-.016 0-.016.016 0zm.032.032zm-.048.064l.016-.032.016.032H11.2zm-.032-.016v-.048l.016.016-.016.032zm-.016-.16l.016-.016v-.016l.032.016v.032l-.048-.016zm-.032-.448c.064-.016.128-.016.144.032-.048-.016-.096-.016-.144-.032z" class="cls-1" data-name="Trazado 1261" transform="translate(-10.1 -51.826)"/>
        </g>
        <g id="Dash_2_" transform="translate(0 2.732)">
            <path id="Trazado_1262" d="M266.7 832.944c-.016 0-.032.016-.048.032s-.064.016-.08.016a1.571 1.571 0 0 0-.288.128c.032 0 .144 0 .144.048a.113.113 0 0 1-.064.08c-.032.016-.064.048-.1.064a.755.755 0 0 1-.528.064.628.628 0 0 0 .128.224 1.325 1.325 0 0 0 .24.176 1.233 1.233 0 0 0 .3.128.493.493 0 0 0-.208.048 2.868 2.868 0 0 0 .352.1.283.283 0 0 1 .144.128 4.184 4.184 0 0 1-.432-.1.935.935 0 0 0-.3-.064.641.641 0 0 0-.24.048 1.036 1.036 0 0 1 .144-.128.5.5 0 0 1 .208-.1.969.969 0 0 1-.576-.752 1.348 1.348 0 0 0 .336.176.689.689 0 0 0 .256 0 .138.138 0 0 0 .1-.048 1.434 1.434 0 0 1-.3-.24.545.545 0 0 0 .16.016c.064 0 .112-.016.176-.016a.78.78 0 0 0 .176-.064 1.409 1.409 0 0 1 .24-.08c.064-.016.128-.016.192-.032a1.039 1.039 0 0 1-.132.148z" class="cls-1" data-name="Trazado 1262" transform="translate(-265.5 -829.216)"/>
            <g id="Group_171_2_" transform="translate(1.584)">
                <g id="Lines_Speed_2_">
                    <path id="Trazado_1263" d="M292.548 701h2.912a.048.048 0 1 0 0-.1h-2.912a.048.048 0 1 0 0 .1z" class="cls-1" data-name="Trazado 1263" transform="translate(-291.044 -700.9)"/>
                    <path id="Trazado_1264" d="M283.448 704.7h2.912a.048.048 0 1 0 0-.1h-2.912a.042.042 0 0 0-.048.048.051.051 0 0 0 .048.052z" class="cls-1" data-name="Trazado 1264" transform="translate(-283.4 -704.008)"/>
                    <path id="Trazado_1265" d="M289.948 708.4h2.912a.048.048 0 1 0 0-.1h-2.912a.042.042 0 0 0-.048.048.051.051 0 0 0 .048.052z" class="cls-1" data-name="Trazado 1265" transform="translate(-288.86 -707.116)"/>
                </g>
            </g>
        </g>
    </g>
</svg>
