<svg xmlns="http://www.w3.org/2000/svg" id="icon_delete" width="14" height="14" viewBox="0 0 14 14">
    <defs>
        <style>
            .cls-1{fill:#fff}.cls-2{fill:none}
        </style>
    </defs>
    <path id="Trazado_1290" d="M23.464 7.491a.315.315 0 0 0-.317.317V13.8a.317.317 0 0 0 .635 0V7.808a.321.321 0 0 0-.318-.317zm-3.733 0a.315.315 0 0 0-.317.317V13.8a.317.317 0 0 0 .635 0V7.808a.327.327 0 0 0-.318-.317zm-2.725-.868v7.812a1.734 1.734 0 0 0 .467 1.2 1.568 1.568 0 0 0 1.129.485h5.992a1.552 1.552 0 0 0 1.129-.485 1.734 1.734 0 0 0 .467-1.2V6.623a1.211 1.211 0 0 0-.317-2.38h-1.625v-.392a1.249 1.249 0 0 0-.364-.887A1.266 1.266 0 0 0 23 2.6h-2.812a1.243 1.243 0 0 0-1.251 1.251v.392h-1.623a1.209 1.209 0 0 0-.308 2.38zm7.588 8.867H18.6a1 1 0 0 1-.961-1.064V6.651h7.924v7.784a1.014 1.014 0 0 1-.969 1.054zM19.572 3.841a.621.621 0 0 1 .178-.441.655.655 0 0 1 .439-.177h2.819a.621.621 0 0 1 .439.177.6.6 0 0 1 .177.439v.392h-4.052zm-2.258 1.036h8.568a.569.569 0 0 1 0 1.139h-8.568a.569.569 0 1 1 0-1.139zM21.6 7.491a.315.315 0 0 0-.317.317V13.8a.317.317 0 0 0 .635 0V7.808a.321.321 0 0 0-.318-.317z" class="cls-1" data-name="Trazado 1290" transform="translate(-14.598 -2.357)"/>
    <path id="Rectángulo_48" d="M0 0h14v14H0z" class="cls-2" data-name="Rectángulo 48"/>
</svg>
