<svg xmlns="http://www.w3.org/2000/svg" width="23.159" height="24" viewBox="0 0 23.159 24">
    <defs>
        <style>
            .cls-1{fill:#1f2138}
        </style>
    </defs>
    <g id="icon_exit" transform="translate(-5.1 -2.5)">
        <path id="Trazado_67" d="M87.713 37.389a.387.387 0 0 0 0-.331.391.391 0 0 0-.1-.149l-5.234-5.234a.433.433 0 1 0-.613.613l4.489 4.489h-9.424a.428.428 0 0 0-.431.431.438.438 0 0 0 .431.431h9.424l-4.489 4.489a.44.44 0 0 0 0 .613.453.453 0 0 0 .315.133.485.485 0 0 0 .315-.133L87.63 37.5a1.129 1.129 0 0 0 .083-.111z" class="cls-1" data-name="Trazado 67" transform="translate(-59.49 -24.238)"/>
        <path id="Trazado_68" d="M20.388 15.171a.428.428 0 0 0-.431.431v6.99h-4.373V5.995a.427.427 0 0 0-.3-.414l-6.923-2.2h11.596v6.99a.431.431 0 0 0 .861 0v-7.44a.428.428 0 0 0-.431-.431H5.514a.1.1 0 0 0-.066.017 1.141 1.141 0 0 0-.133.05c0 .017-.017.017-.033.017l-.033.033-.017.017a.361.361 0 0 0-.083.133c0 .017 0 .017-.017.033a.312.312 0 0 0-.033.133v20.089a.484.484 0 0 0 .033.149c0 .017.017.033.017.05a.362.362 0 0 0 .05.083l.033.033c.033.017.05.033.083.05a.061.061 0 0 0 .05.017.016.016 0 0 1 .017.017l9.607 3.064a.365.365 0 0 0 .133.017.5.5 0 0 0 .265-.083.432.432 0 0 0 .182-.348v-2.619h4.8a.428.428 0 0 0 .431-.431V15.6a.4.4 0 0 0-.412-.429zM14.707 25.49l-8.729-2.783V3.527l8.729 2.783z" class="cls-1" data-name="Trazado 68"/>
    </g>
</svg>
