<svg xmlns="http://www.w3.org/2000/svg" id="icon_feature" width="24" height="24" viewBox="0 0 24 24">
    <defs>
        <style>
            .cls-1{fill:#1f2138}.cls-2{fill:none}
        </style>
    </defs>
    <g id="Surface" transform="translate(.4 1.168)">
        <path id="Trazado_1271" d="M4.052 25.86h.768v-.768h-.768a.768.768 0 0 1-.768-.768V8.852a.768.768 0 0 1 .768-.768H21.06a.768.768 0 0 1 .768.768v.768h.772v-.768A1.553 1.553 0 0 0 21.044 7.3H4.052A1.553 1.553 0 0 0 2.5 8.852v15.472a1.54 1.54 0 0 0 1.552 1.536z" class="cls-1" data-name="Trazado 1271" transform="translate(-2.5 -7.3)"/>
        <path id="Trazado_1272" d="M12.584 17a.389.389 0 0 1 .384.384.389.389 0 0 1-.384.384.389.389 0 0 1-.384-.384.389.389 0 0 1 .384-.384z" class="cls-1" data-name="Trazado 1272" transform="translate(-10.648 -15.448)"/>
        <path id="Trazado_1273" d="M22.184 17a.389.389 0 0 1 .384.384.389.389 0 0 1-.384.384.389.389 0 0 1-.384-.384.389.389 0 0 1 .384-.384z" class="cls-1" data-name="Trazado 1273" transform="translate(-18.712 -15.448)"/>
        <path id="Trazado_1274" d="M31.884 17a.389.389 0 0 1 .384.384.389.389 0 0 1-.384.384.389.389 0 0 1-.384-.384.389.389 0 0 1 .384-.384z" class="cls-1" data-name="Trazado 1274" transform="translate(-26.86 -15.448)"/>
        <path id="Trazado_1275" d="M21.8 43.624a1.553 1.553 0 0 0 1.552 1.552H40.36a1.553 1.553 0 0 0 1.552-1.552V28.152A1.553 1.553 0 0 0 40.36 26.6H23.352a1.553 1.553 0 0 0-1.552 1.552zm.784-15.472a.768.768 0 0 1 .768-.768H40.36a.768.768 0 0 1 .768.768v15.472a.768.768 0 0 1-.768.768H23.352a.768.768 0 0 1-.768-.768z" class="cls-1" data-name="Trazado 1275" transform="translate(-18.712 -23.512)"/>
        <path id="Trazado_1276" d="M31.884 36.3a.389.389 0 0 1 .384.384.389.389 0 0 1-.384.384.389.389 0 0 1-.384-.384.389.389 0 0 1 .384-.384z" class="cls-1" data-name="Trazado 1276" transform="translate(-26.86 -31.66)"/>
        <path id="Trazado_1277" d="M41.584 36.3a.389.389 0 0 1 .384.384.389.389 0 0 1-.384.384.389.389 0 0 1-.384-.384.389.389 0 0 1 .384-.384z" class="cls-1" data-name="Trazado 1277" transform="translate(-35.008 -31.66)"/>
        <path id="Trazado_1278" d="M51.184 36.3a.389.389 0 0 1 .384.384.389.389 0 0 1-.384.384.389.389 0 0 1-.384-.384.389.389 0 0 1 .384-.384z" class="cls-1" data-name="Trazado 1278" transform="translate(-43.072 -31.66)"/>
        <path id="Trazado_1279" d="M31.5 46h17.008v.768H31.5z" class="cls-1" data-name="Trazado 1279" transform="translate(-26.86 -39.808)"/>
        <path id="Trazado_1280" d="M31.884 58.1H34.2a.389.389 0 0 1 .384.384.389.389 0 0 1-.384.384h-2.32a.389.389 0 0 1-.384-.384.389.389 0 0 1 .388-.384z" class="cls-1" data-name="Trazado 1280" transform="translate(-26.86 -49.972)"/>
        <path id="Trazado_1281" d="M31.884 67.8h1.552a.389.389 0 0 1 .384.384.389.389 0 0 1-.384.384h-1.552a.389.389 0 0 1-.384-.384.389.389 0 0 1 .384-.384z" class="cls-1" data-name="Trazado 1281" transform="translate(-26.86 -58.12)"/>
        <path id="Trazado_1282" d="M70.5 77.4a2.7 2.7 0 1 0 2.7 2.7 2.711 2.711 0 0 0-2.7-2.7zm0 4.64a1.936 1.936 0 1 1 1.94-1.94 1.953 1.953 0 0 1-1.94 1.94z" class="cls-1" data-name="Trazado 1282" transform="translate(-57.352 -66.184)"/>
        <path id="Trazado_1283" d="M58.368 60.724a.389.389 0 0 0-.384-.384H56.96a4.2 4.2 0 0 0-.3-.736l.72-.72a.4.4 0 0 0 0-.544l-1.648-1.648a.4.4 0 0 0-.544 0l-.72.72a4.2 4.2 0 0 0-.736-.3v-1.028a.389.389 0 0 0-.384-.384h-2.32a.389.389 0 0 0-.384.384v1.024a5.93 5.93 0 0 0-.736.3l-.72-.72a.4.4 0 0 0-.544 0l-1.648 1.632a.4.4 0 0 0 0 .544l.72.72-.1.192a3.788 3.788 0 0 0-.208.544h-1.024a.389.389 0 0 0-.384.384v2.32a.389.389 0 0 0 .384.384h1.024a4.2 4.2 0 0 0 .3.736l-.72.72a.4.4 0 0 0 0 .544l1.652 1.652a.4.4 0 0 0 .544 0l.72-.72a4.2 4.2 0 0 0 .736.3v1.024a.389.389 0 0 0 .384.384h2.32a.389.389 0 0 0 .384-.384v-1.02a5.93 5.93 0 0 0 .736-.3l.72.72a.4.4 0 0 0 .544 0l1.648-1.648a.4.4 0 0 0 0-.544l-.72-.72a4.2 4.2 0 0 0 .3-.736h1.024a.389.389 0 0 0 .384-.384zM57.6 62.66h-.928a.363.363 0 0 0-.368.288 4.331 4.331 0 0 1-.448 1.088.366.366 0 0 0 .064.464l.656.656-1.088 1.088-.656-.656a.39.39 0 0 0-.464-.064 3.81 3.81 0 0 1-1.088.448.375.375 0 0 0-.288.368v.928H51.44v-.928a.363.363 0 0 0-.288-.368 4.331 4.331 0 0 1-1.088-.448.366.366 0 0 0-.464.064l-.656.656-1.088-1.088.656-.656a.39.39 0 0 0 .064-.464 3.81 3.81 0 0 1-.448-1.088.375.375 0 0 0-.368-.288h-.928v-1.552h.928a.363.363 0 0 0 .368-.288 3.708 3.708 0 0 1 .256-.7c.064-.128.128-.256.208-.384a.366.366 0 0 0-.064-.464l-.656-.656 1.088-1.088.656.656a.39.39 0 0 0 .464.064 3.811 3.811 0 0 1 1.088-.448.375.375 0 0 0 .288-.368V56.5h1.552v.928a.363.363 0 0 0 .288.368 4.331 4.331 0 0 1 1.088.448.366.366 0 0 0 .464-.064l.656-.656 1.088 1.088-.656.656a.39.39 0 0 0-.064.464 3.81 3.81 0 0 1 .448 1.088.375.375 0 0 0 .368.288h.928L57.6 62.66z" class="cls-1" data-name="Trazado 1283" transform="translate(-39.04 -47.956)"/>
        <path id="Trazado_1284" d="M123.684 128.2h1.552a.389.389 0 0 1 .384.384.389.389 0 0 1-.384.384h-1.552a.389.389 0 0 1-.384-.384.389.389 0 0 1 .384-.384z" class="cls-1" data-name="Trazado 1284" transform="translate(-103.972 -108.856)"/>
    </g>
    <path id="Rectángulo_45" d="M0 0h24v24H0z" class="cls-2" data-name="Rectángulo 45"/>
</svg>
