<svg xmlns="http://www.w3.org/2000/svg" xmlns:xlink="http://www.w3.org/1999/xlink" id="icon_powerbank_menu" width="24" height="24" viewBox="0 0 24 24">
    <defs>
        <style>
            .cls-1,.cls-2,.cls-8{fill:none}.cls-2,.cls-8{stroke:#282727}.cls-2{stroke-width:.25px}.cls-3{fill:#282727}.cls-4{fill:url(#linear-gradient)}.cls-5{fill:url(#linear-gradient-2)}.cls-6{fill:url(#linear-gradient-3)}.cls-7{fill:url(#linear-gradient-4)}.cls-8{stroke-linecap:round;stroke-linejoin:round;stroke-miterlimit:10;stroke-width:.033px;stroke-dasharray:.213}
        </style>
        <linearGradient id="linear-gradient" x1="-46.374" x2="-46.339" y1="10.005" y2="10.005" gradientUnits="objectBoundingBox">
            <stop offset="0" stop-color="#3b3b3b"/>
            <stop offset="1" stop-color="#4e4e4e"/>
        </linearGradient>
        <linearGradient id="linear-gradient-2" x1="-232.791" x2="-232.518" y1="17.084" y2="17.084" gradientUnits="objectBoundingBox">
            <stop offset="0" stop-color="#3d3d3d"/>
            <stop offset="1" stop-color="#2b2b2b"/>
        </linearGradient>
        <linearGradient id="linear-gradient-3" x1="-20.618" x2="-20.585" y1="10.005" y2="10.005" xlink:href="#linear-gradient"/>
        <linearGradient id="linear-gradient-4" x1="-246.106" x2="-245.832" y1="17.084" y2="17.084" xlink:href="#linear-gradient-2"/>
    </defs>
    <path id="Rectángulo" d="M0 0h24v24H0z" class="cls-1"/>
    <g id="Grupo_136" data-name="Grupo 136" transform="translate(4.864 .4)">
        <path id="Label" d="M49.532 30.7H38.14a.236.236 0 0 1-.24-.24V10.14a.236.236 0 0 1 .24-.24h11.408a.236.236 0 0 1 .24.24v20.352a.247.247 0 0 1-.256.208z" class="cls-2" transform="translate(-36.7 -8.716)"/>
        <g id="Battery_Indicator" transform="translate(6.36 19.866)">
            <circle id="Elipse_110" cx=".16" cy=".16" r=".16" class="cls-3"/>
            <circle id="Elipse_111" cx=".16" cy=".16" r=".16" class="cls-3" transform="translate(.624)"/>
            <circle id="Elipse_112" cx=".16" cy=".16" r=".16" class="cls-3" transform="translate(1.248)"/>
        </g>
        <g id="Cable_Lightning" transform="translate(13.153 2.309)">
            <path id="Trazado_1345" d="M52.428 8.9l-.368.144s-.16.048-.16.16v1.5a.163.163 0 0 0 .08.128c.144.064.3.128.448.176z" class="cls-4" transform="translate(-51.9 -8.9)"/>
            <path id="Trazado_1346" d="M52.8 12.9a.1.1 0 0 1-.1-.1v-1a.1.1 0 0 1 .1-.1.1.1 0 0 1 .1.1v1a.144.144 0 0 1-.1.1z" class="cls-5" transform="translate(-52.572 -11.252)"/>
        </g>
        <g id="Cable_Micro" transform="translate(.591 2.309)">
            <path id="Trazado_1348" d="M16.6 8.9l.384.144c.016 0 .16.048.16.16v1.5a.163.163 0 0 1-.08.128c-.144.064-.3.128-.448.176z" class="cls-6" transform="translate(-16.6 -8.9)"/>
            <path id="Trazado_1349" d="M18 12.9a.1.1 0 0 0 .1-.1v-1a.1.1 0 0 0-.1-.1.1.1 0 0 0-.1.1v1a.144.144 0 0 0 .1.1z" class="cls-7" transform="translate(-17.692 -11.252)"/>
        </g>
        <g id="Shake_1_" transform="translate(2.25 20.031)">
            <g id="Grupo_623">
                <path id="Trazado_1354" d="M21.317 59.292a.1.1 0 0 1-.048-.128l.208-.448a.1.1 0 0 1 .128-.048l.928.4" class="cls-8" transform="translate(-21.263 -58.662)"/>
                <path id="Trazado_1355" d="M21.317 64.1a.1.1 0 0 0-.048.128l.208.448a.1.1 0 0 0 .128.048l.928-.4" class="cls-8" transform="translate(-21.263 -63.23)"/>
                <g id="Battery" transform="translate(.072 .396)">
                    <path id="Trazado_1353" d="M21.548 59.9c0-.016.016-.048.032-.048h1.088c.016 0 .048.016.048.032v.544c0 .016-.016.048-.032.048h-1.1c-.016 0-.048-.016-.048-.032V59.9m-.032 0v.528a.1.1 0 0 0 .1.1h1.072a.1.1 0 0 0 .1-.1V59.9a.1.1 0 0 0-.1-.1H21.58c-.032 0-.064.032-.08.1z" class="cls-3" transform="translate(-21.5 -59.8)"/>
                    <circle id="Elipse_114" cx=".016" cy=".016" r=".016" class="cls-3" transform="translate(1.088 .4)"/>
                    <circle id="Elipse_115" cx=".016" cy=".016" r=".016" class="cls-3" transform="translate(1.088 .32)"/>
                    <circle id="Elipse_116" cx=".016" cy=".016" r=".016" class="cls-3" transform="translate(1.088 .24)"/>
                </g>
            </g>
            <path id="Bolt_1_" d="M24.392 62.5v.112l-.192-.048.256.192v-.112l.192.048" class="cls-3" transform="translate(-23.73 -61.886)"/>
        </g>
        <path id="Trazado_1318" d="M43.36 25.7H31.7a1.294 1.294 0 0 1-1.3-1.264V3.8a1.3 1.3 0 0 1 1.3-1.3h11.7a1.3 1.3 0 0 1 1.3 1.28V24.4a1.283 1.283 0 0 1-.384.912 1.318 1.318 0 0 1-.944.384M31.12 24.388a.573.573 0 0 0 .576.576H43.36a.567.567 0 0 0 .416-.16.573.573 0 0 0 .176-.4V3.8a.56.56 0 0 0-.576-.56H31.712a.574.574 0 0 0-.576.576v20.572z" class="cls-3" data-name="Trazado 1318" transform="translate(-30.4 -2.5)"/>
        <path id="Arrow" d="M72.6 136.4h.736l-.368.368z" class="cls-3" transform="translate(-65.848 -114.976)"/>
        <path id="Bolt_2_" d="M59.5 52.164h2.176l-.928 3.712 3.712-5.264h-2.176l.928-3.712" class="cls-3" transform="translate(-54.844 -39.796)"/>
    </g>
</svg>
