<svg xmlns="http://www.w3.org/2000/svg" id="icon_wallet" width="24" height="24" viewBox="0 0 24 24">
    <defs>
        <style>
            .cls-1{fill:#1f2138}.cls-2{fill:none}
        </style>
    </defs>
    <g id="Grupo_100" data-name="Grupo 100" transform="translate(.4 .4)">
        <path id="Trazado_1266" d="M113.852 94.1h1.1a.352.352 0 1 0 0-.7h-1.1a.355.355 0 0 0-.352.352.366.366 0 0 0 .352.348z" class="cls-1" data-name="Trazado 1266" transform="translate(-95.74 -78.856)"/>
        <path id="Trazado_1267" d="M25.348 12.244h-2.176V8.8a1.721 1.721 0 0 0-1.728-1.728H15.3V4a1.5 1.5 0 0 0-1.5-1.5H6.2A1.5 1.5 0 0 0 4.692 4v5.7a2.233 2.233 0 0 0-1.488.688 2.226 2.226 0 0 0-.7 1.648v11.312A2.356 2.356 0 0 0 4.852 25.7h10.512a.352.352 0 0 0 0-.7H4.852a1.659 1.659 0 0 1-1.664-1.648V13.7a2.378 2.378 0 0 0 1.648.688H17.86a1.342 1.342 0 0 1 1.34 1.344v7.92A1.342 1.342 0 0 1 17.86 25H16.5a.352.352 0 0 0 0 .7h1.36a2.052 2.052 0 0 0 2.048-2.048v-1.088h5.44a.355.355 0 0 0 .352-.352V12.6a.355.355 0 0 0-.352-.356zm-14.576 0v-.992h11.712v.992zM22.484 8.8v.08h-3.328a.352.352 0 0 0 0 .7h3.328v.992H10.772v-.984H18a.352.352 0 0 0 0-.7h-7.228v-.18a.929.929 0 0 1 .928-.928h9.744a1.015 1.015 0 0 1 1.04 1.02zM5.364 4a.819.819 0 0 1 .816-.816h7.6A.819.819 0 0 1 14.6 4v3.076h-.288v-1.6a.929.929 0 0 0-.928-.928H6.58a.929.929 0 0 0-.928.928v1.232a.352.352 0 1 0 .7 0V5.476a.246.246 0 0 1 .24-.24h6.816a.246.246 0 0 1 .24.24v1.6h-1.92a1.612 1.612 0 0 0-1.616 1.616v3.552H8.644a.355.355 0 0 0-.352.352v1.1h-1.92V7.812a.352.352 0 1 0-.7 0V13.7H5.38L5.364 4zm-2.176 8.036a1.645 1.645 0 0 1 .48-1.168 1.706 1.706 0 0 1 1.008-.48v3.3a1.652 1.652 0 0 1-1.488-1.652zM19.4 14.388h2.416a2.16 2.16 0 0 0 1.76 1.76v2.544a2.16 2.16 0 0 0-1.76 1.76h-1.892v-4.72a2.017 2.017 0 0 0-.524-1.344zm5.616 7.488h-5.092v-.752h2.208a.355.355 0 0 0 .352-.352 1.444 1.444 0 0 1 1.44-1.44.355.355 0 0 0 .352-.352v-3.168a.355.355 0 0 0-.352-.352 1.444 1.444 0 0 1-1.44-1.44.355.355 0 0 0-.352-.352H8.964V12.9h16.048v8.976z" class="cls-1" data-name="Trazado 1267" transform="translate(-2.5 -2.5)"/>
        <path id="Trazado_1268" d="M134.168 72.827a.328.328 0 0 0 .3.208.349.349 0 0 0 .224-.624.336.336 0 0 0-.4-.016.379.379 0 0 0-.124.432z" class="cls-1" data-name="Trazado 1268" transform="translate(-113.08 -61.163)"/>
        <path id="Trazado_1269" d="M134.855 114.8a.333.333 0 0 0-.336-.208.308.308 0 0 0-.3.24.348.348 0 0 0 .512.4.386.386 0 0 0 .124-.432z" class="cls-1" data-name="Trazado 1269" transform="translate(-113.127 -96.655)"/>
        <path id="Trazado_1270" d="M81.828 100.664a1.664 1.664 0 1 0-1.664 1.648 1.663 1.663 0 0 0 1.664-1.648zm-2.624 0a.96.96 0 1 1 .96.96.943.943 0 0 1-.964-.96z" class="cls-1" data-name="Trazado 1270" transform="translate(-66.34 -83.56)"/>
    </g>
    <path id="Rectángulo_44" d="M0 0h24v24H0z" class="cls-2" data-name="Rectángulo 44"/>
</svg>
