<svg xmlns="http://www.w3.org/2000/svg" id="icon_user_rounded" width="24" height="24" viewBox="0 0 24 24">
    <defs>
        <style>
            .cls-1{fill:#1f2138}.cls-2{fill:none}
        </style>
    </defs>
    <path id="Trazado_1285" d="M25.7 14.1A11.6 11.6 0 0 0 6.068 5.732a.69.69 0 1 0 .96.992 10.222 10.222 0 0 1 14.608 14.288 10.215 10.215 0 0 1-14.832.24.467.467 0 0 0 .032-.144c.016-.032.016-.08.032-.112.016-.064.032-.112.048-.176.016-.032.016-.064.032-.1.016-.064.048-.128.064-.192.016-.032.016-.048.032-.08.064-.176.144-.352.224-.528.016-.032.032-.048.032-.08.032-.064.064-.112.1-.176l.048-.1a.747.747 0 0 0 .08-.16.335.335 0 0 1 .064-.1.649.649 0 0 0 .08-.144c.016-.032.048-.064.064-.1a.888.888 0 0 1 .1-.128c.016-.032.048-.064.064-.1.032-.048.064-.08.1-.128.032-.032.048-.064.08-.1.032-.048.064-.08.1-.128.032-.032.048-.064.08-.1s.064-.08.1-.112a.424.424 0 0 0 .08-.1.739.739 0 0 1 .112-.112l.1-.1a.739.739 0 0 0 .112-.112.424.424 0 0 1 .1-.08c.032-.032.08-.064.112-.1s.064-.048.1-.08.08-.064.112-.1.064-.048.1-.08a.887.887 0 0 1 .128-.1.677.677 0 0 1 .112-.08c.048-.032.08-.048.128-.08.032-.016.08-.048.112-.064.048-.032.08-.048.128-.08.032-.016.08-.048.112-.064.048-.032.08-.048.128-.08.032-.016.08-.048.112-.064a.95.95 0 0 0 .128-.064.4.4 0 0 0 .112-.064c.048-.016.1-.048.144-.064.032-.016.08-.032.112-.048l.144-.048c.048-.016.08-.032.128-.048l.144-.048c.048-.016.08-.032.128-.048l.144-.048a.377.377 0 0 1 .128-.032.473.473 0 0 1 .16-.032c.048-.016.08-.016.128-.032s.112-.016.16-.032.08-.016.128-.032.112-.016.16-.032c.048 0 .08-.016.128-.016.064 0 .112-.016.176-.016.032 0 .08-.016.112-.016.064 0 .128-.016.192-.016h2.08a6.616 6.616 0 0 1 5.12 2.416.682.682 0 0 0 1.056-.864 7.853 7.853 0 0 0-4.112-2.64 4.383 4.383 0 1 0-5.808.016c-.016 0-.048.016-.064.016-.1.032-.192.048-.288.08-.016 0-.016 0-.032.016a1.706 1.706 0 0 0-.3.112.227.227 0 0 1-.1.032c-.064.032-.144.048-.208.08-.032.016-.08.032-.112.048-.064.032-.128.048-.192.08a.4.4 0 0 0-.112.064.858.858 0 0 1-.176.08c-.032.016-.08.048-.112.064-.064.032-.112.064-.176.1-.032.016-.08.048-.112.064-.064.032-.112.08-.176.112a.335.335 0 0 0-.1.064c-.08.048-.144.1-.224.144-.016.016-.032.016-.048.032-.08.064-.176.128-.256.192a.281.281 0 0 0-.08.064 1.7 1.7 0 0 0-.176.144c-.032.032-.064.048-.1.08-.048.048-.1.08-.144.128l-.1.1a1.035 1.035 0 0 1-.144.128l-.1.1a1.035 1.035 0 0 0-.128.144l-.1.1a1.443 1.443 0 0 0-.144.16c-.032.032-.048.064-.08.1-.048.064-.112.128-.16.192a.221.221 0 0 0-.048.064c-.064.08-.128.176-.192.256-.016.016-.032.048-.048.064a1.335 1.335 0 0 0-.128.192c-.016.032-.048.064-.064.1-.032.064-.08.112-.112.176-.016.032-.048.08-.064.112-.032.064-.064.112-.1.176-.016.032-.048.08-.064.112-.032.064-.064.112-.1.176A.943.943 0 0 1 6 19.38a.979.979 0 0 0-.08.192c-.016.032-.032.08-.048.112-.032.08-.064.144-.1.224-.016.032-.016.064-.032.08V20a10.23 10.23 0 0 1-1.872-5.9.688.688 0 1 0-1.376 0 11.607 11.607 0 0 0 20.16 7.84A11.629 11.629 0 0 0 25.7 14.1zM14.1 8.724a3.016 3.016 0 1 1-3.024 3.008A3.032 3.032 0 0 1 14.1 8.724z" class="cls-1" data-name="Trazado 1285" transform="translate(-2.1 -2.1)"/>
    <path id="Rectángulo_46" d="M0 0h24v24H0z" class="cls-2" data-name="Rectángulo 46"/>
</svg>
